<?xml version="1.0" encoding="utf-8"?>
<!-- Generator: Adobe Illustrator 15.0.0, SVG Export Plug-In . SVG Version: 6.00 Build 0)  -->
<!DOCTYPE svg PUBLIC "-//W3C//DTD SVG 1.1//EN" "http://www.w3.org/Graphics/SVG/1.1/DTD/svg11.dtd">
<svg version="1.1" id="Layer_1" xmlns="http://www.w3.org/2000/svg" xmlns:xlink="http://www.w3.org/1999/xlink" x="0px" y="0px"
	 width="32px" height="32px" viewBox="0 0 32 32" enable-background="new 0 0 32 32" xml:space="preserve">
<g>
	<path fill="#FFFFFF" d="M21.188,30.938l-7.466-4.96H7.433c-2.025,0-3.671-1.688-3.671-3.766V9.099c0-2.076,1.647-3.766,3.671-3.766
		h17.361c2.024,0,3.671,1.689,3.671,3.766v13.113c0,2.075-1.647,3.766-3.671,3.766h-3.606V30.938L21.188,30.938z M7.433,7.548
		c-0.834,0-1.512,0.696-1.512,1.551v13.113c0,0.855,0.678,1.55,1.512,1.55h6.927l4.669,3.102v-3.102h5.766
		c0.834,0,1.511-0.694,1.511-1.55V9.099c0-0.854-0.677-1.551-1.511-1.551H7.433z"/>
</g>
</svg>
